<svg xmlns="http://www.w3.org/2000/svg" xmlns:xlink="http://www.w3.org/1999/xlink" width="500" zoomAndPan="magnify" viewBox="0 0 375 374.999991" height="500" preserveAspectRatio="xMidYMid meet" version="1.0"><defs><g/><clipPath id="071c5bfba7"><path d="M 112.5 85.691406 L 262.5 85.691406 L 262.5 235.691406 L 112.5 235.691406 Z M 112.5 85.691406 " clip-rule="nonzero"/></clipPath></defs><g clip-path="url(#071c5bfba7)"><path fill="#60768b" d="M 147.96875 235.691406 L 112.5 200.226562 L 152.03125 160.695312 L 112.5 121.160156 L 147.96875 85.691406 L 187.5 125.226562 L 227.03125 85.691406 L 262.5 121.160156 L 222.96875 160.695312 L 262.5 200.226562 L 227.03125 235.691406 L 200.710938 209.375 C 189.5625 198.222656 189.5625 180.082031 200.710938 168.929688 L 208.949219 160.695312 L 187.5 139.242188 L 166.050781 160.695312 L 174.285156 168.929688 C 179.6875 174.332031 182.664062 181.511719 182.664062 189.152344 C 182.664062 196.789062 179.6875 203.972656 174.285156 209.375 Z M 215.957031 167.703125 L 207.71875 175.941406 C 200.4375 183.226562 200.4375 195.078125 207.71875 202.363281 L 227.03125 221.675781 L 248.480469 200.226562 Z M 126.519531 200.226562 L 147.96875 221.671875 L 167.277344 202.363281 C 170.808594 198.835938 172.75 194.144531 172.75 189.152344 C 172.75 184.160156 170.808594 179.46875 167.277344 175.941406 L 159.039062 167.703125 Z M 126.519531 121.160156 L 159.039062 153.683594 L 180.492188 132.234375 L 147.96875 99.710938 Z M 194.507812 132.234375 L 215.957031 153.683594 L 248.480469 121.160156 L 227.03125 99.710938 Z M 194.507812 132.234375 " fill-opacity="1" fill-rule="nonzero"/></g><g fill="#60768b" fill-opacity="1"><g transform="translate(127.55955, 269.267735)"><g><path d="M 10.75 0 L 7.703125 -4.5625 L 4.703125 0 L -0.046875 0 L 5.3125 -7.4375 L 0.1875 -14.703125 L 4.875 -14.703125 L 7.8125 -10.453125 L 10.703125 -14.703125 L 15.203125 -14.703125 L 10.078125 -7.609375 L 15.546875 0 Z M 10.75 0 "/></g></g></g><g fill="#60768b" fill-opacity="1"><g transform="translate(147.23662, 269.267735)"><g><path d="M 1.015625 -7.515625 L 7.140625 -7.515625 L 7.140625 -4.453125 L 1.015625 -4.453125 Z M 1.015625 -7.515625 "/></g></g></g><g fill="#60768b" fill-opacity="1"><g transform="translate(159.584652, 269.267735)"><g><path d="M 15.453125 -14.703125 L 15.453125 0 L 11.296875 0 L 11.296875 -5.734375 L 5.625 -5.734375 L 5.625 0 L 1.46875 0 L 1.46875 -14.703125 L 5.625 -14.703125 L 5.625 -9.171875 L 11.296875 -9.171875 L 11.296875 -14.703125 Z M 15.453125 -14.703125 "/></g></g></g><g fill="#60768b" fill-opacity="1"><g transform="translate(180.710727, 269.267735)"><g><path d="M 1.46875 -14.703125 L 5.625 -14.703125 L 5.625 0 L 1.46875 0 Z M 1.46875 -14.703125 "/></g></g></g><g fill="#60768b" fill-opacity="1"><g transform="translate(192.029752, 269.267735)"><g><path d="M 7.890625 -3.90625 L 5.625 -3.90625 L 5.625 0 L 1.46875 0 L 1.46875 -14.703125 L 8.1875 -14.703125 C 9.519531 -14.703125 10.675781 -14.476562 11.65625 -14.03125 C 12.632812 -13.59375 13.390625 -12.960938 13.921875 -12.140625 C 14.453125 -11.328125 14.71875 -10.367188 14.71875 -9.265625 C 14.71875 -8.203125 14.46875 -7.273438 13.96875 -6.484375 C 13.476562 -5.691406 12.769531 -5.070312 11.84375 -4.625 L 15.015625 0 L 10.5625 0 Z M 10.515625 -9.265625 C 10.515625 -9.953125 10.296875 -10.484375 9.859375 -10.859375 C 9.429688 -11.234375 8.789062 -11.421875 7.9375 -11.421875 L 5.625 -11.421875 L 5.625 -7.125 L 7.9375 -7.125 C 8.789062 -7.125 9.429688 -7.304688 9.859375 -7.671875 C 10.296875 -8.046875 10.515625 -8.578125 10.515625 -9.265625 Z M 10.515625 -9.265625 "/></g></g></g><g fill="#60768b" fill-opacity="1"><g transform="translate(211.769819, 269.267735)"><g><path d="M 13.265625 -3.21875 L 13.265625 0 L 1.46875 0 L 1.46875 -14.703125 L 13 -14.703125 L 13 -11.484375 L 5.59375 -11.484375 L 5.59375 -9.015625 L 12.109375 -9.015625 L 12.109375 -5.90625 L 5.59375 -5.90625 L 5.59375 -3.21875 Z M 13.265625 -3.21875 "/></g></g></g><g fill="#60768b" fill-opacity="1"><g transform="translate(230.081886, 269.267735)"><g><path d="M 1.46875 -14.703125 L 8.421875 -14.703125 C 10.035156 -14.703125 11.460938 -14.398438 12.703125 -13.796875 C 13.953125 -13.191406 14.914062 -12.335938 15.59375 -11.234375 C 16.28125 -10.128906 16.625 -8.832031 16.625 -7.34375 C 16.625 -5.863281 16.28125 -4.570312 15.59375 -3.46875 C 14.914062 -2.363281 13.953125 -1.507812 12.703125 -0.90625 C 11.460938 -0.300781 10.035156 0 8.421875 0 L 1.46875 0 Z M 8.25 -3.3125 C 9.507812 -3.3125 10.519531 -3.664062 11.28125 -4.375 C 12.050781 -5.09375 12.4375 -6.082031 12.4375 -7.34375 C 12.4375 -8.601562 12.050781 -9.585938 11.28125 -10.296875 C 10.519531 -11.015625 9.507812 -11.375 8.25 -11.375 L 5.625 -11.375 L 5.625 -3.3125 Z M 8.25 -3.3125 "/></g></g></g><g fill="#303642" fill-opacity="1"><g transform="translate(102.217724, 286.615469)"><g><path d="M 1 -7.4375 L 2.375 -7.4375 L 2.375 -1.171875 L 6.265625 -1.171875 L 6.265625 0 L 1 0 Z M 1 -7.4375 "/></g></g></g><g fill="#303642" fill-opacity="1"><g transform="translate(110.703182, 286.615469)"><g><path d="M 6.578125 -1.15625 L 6.578125 0 L 1 0 L 1 -7.4375 L 6.421875 -7.4375 L 6.421875 -6.28125 L 2.375 -6.28125 L 2.375 -4.34375 L 5.96875 -4.34375 L 5.96875 -3.203125 L 2.375 -3.203125 L 2.375 -1.15625 Z M 6.578125 -1.15625 "/></g></g></g><g fill="#303642" fill-opacity="1"><g transform="translate(119.942473, 286.615469)"><g><path d="M 2.5 -6.265625 L 0.046875 -6.265625 L 0.046875 -7.4375 L 6.359375 -7.4375 L 6.359375 -6.265625 L 3.890625 -6.265625 L 3.890625 0 L 2.5 0 Z M 2.5 -6.265625 "/></g></g></g><g fill="#303642" fill-opacity="1"><g transform="translate(128.459791, 286.615469)"><g><path d="M 0.59375 -7.4375 L 1.75 -7.4375 L 1.640625 -4.5 L 0.6875 -4.5 Z M 0.59375 -7.4375 "/></g></g></g><g fill="#303642" fill-opacity="1"><g transform="translate(132.921313, 286.615469)"><g><path d="M 3.296875 0.109375 C 2.722656 0.109375 2.171875 0.03125 1.640625 -0.125 C 1.109375 -0.289062 0.6875 -0.507812 0.375 -0.78125 L 0.84375 -1.859375 C 1.15625 -1.617188 1.53125 -1.421875 1.96875 -1.265625 C 2.414062 -1.117188 2.859375 -1.046875 3.296875 -1.046875 C 3.859375 -1.046875 4.273438 -1.132812 4.546875 -1.3125 C 4.816406 -1.488281 4.953125 -1.722656 4.953125 -2.015625 C 4.953125 -2.222656 4.875 -2.394531 4.71875 -2.53125 C 4.570312 -2.664062 4.378906 -2.769531 4.140625 -2.84375 C 3.910156 -2.925781 3.59375 -3.019531 3.1875 -3.125 C 2.625 -3.257812 2.164062 -3.394531 1.8125 -3.53125 C 1.457031 -3.664062 1.15625 -3.875 0.90625 -4.15625 C 0.65625 -4.445312 0.53125 -4.835938 0.53125 -5.328125 C 0.53125 -5.734375 0.640625 -6.101562 0.859375 -6.4375 C 1.085938 -6.78125 1.425781 -7.050781 1.875 -7.25 C 2.320312 -7.445312 2.875 -7.546875 3.53125 -7.546875 C 3.976562 -7.546875 4.421875 -7.488281 4.859375 -7.375 C 5.304688 -7.257812 5.6875 -7.097656 6 -6.890625 L 5.5625 -5.8125 C 5.238281 -6 4.898438 -6.140625 4.546875 -6.234375 C 4.191406 -6.335938 3.847656 -6.390625 3.515625 -6.390625 C 2.972656 -6.390625 2.566406 -6.296875 2.296875 -6.109375 C 2.035156 -5.929688 1.90625 -5.691406 1.90625 -5.390625 C 1.90625 -5.171875 1.976562 -4.992188 2.125 -4.859375 C 2.28125 -4.734375 2.472656 -4.628906 2.703125 -4.546875 C 2.941406 -4.472656 3.265625 -4.382812 3.671875 -4.28125 C 4.222656 -4.15625 4.675781 -4.019531 5.03125 -3.875 C 5.382812 -3.738281 5.6875 -3.53125 5.9375 -3.25 C 6.1875 -2.96875 6.3125 -2.585938 6.3125 -2.109375 C 6.3125 -1.691406 6.195312 -1.316406 5.96875 -0.984375 C 5.75 -0.648438 5.410156 -0.382812 4.953125 -0.1875 C 4.503906 0.0078125 3.953125 0.109375 3.296875 0.109375 Z M 3.296875 0.109375 "/></g></g></g><g fill="#303642" fill-opacity="1"><g transform="translate(141.725295, 286.615469)"><g/></g></g><g fill="#303642" fill-opacity="1"><g transform="translate(146.781383, 286.615469)"><g><path d="M 6.078125 -3.796875 L 7.390625 -3.796875 L 7.390625 -0.84375 C 7.003906 -0.53125 6.554688 -0.289062 6.046875 -0.125 C 5.535156 0.03125 5.007812 0.109375 4.46875 0.109375 C 3.71875 0.109375 3.035156 -0.0507812 2.421875 -0.375 C 1.816406 -0.707031 1.335938 -1.164062 0.984375 -1.75 C 0.640625 -2.332031 0.46875 -2.988281 0.46875 -3.71875 C 0.46875 -4.445312 0.640625 -5.101562 0.984375 -5.6875 C 1.335938 -6.269531 1.816406 -6.722656 2.421875 -7.046875 C 3.035156 -7.378906 3.726562 -7.546875 4.5 -7.546875 C 5.113281 -7.546875 5.675781 -7.441406 6.1875 -7.234375 C 6.695312 -7.023438 7.128906 -6.722656 7.484375 -6.328125 L 6.609375 -5.484375 C 6.046875 -6.046875 5.363281 -6.328125 4.5625 -6.328125 C 4.03125 -6.328125 3.5625 -6.21875 3.15625 -6 C 2.75 -5.78125 2.429688 -5.472656 2.203125 -5.078125 C 1.972656 -4.679688 1.859375 -4.226562 1.859375 -3.71875 C 1.859375 -3.21875 1.972656 -2.769531 2.203125 -2.375 C 2.429688 -1.976562 2.75 -1.664062 3.15625 -1.4375 C 3.5625 -1.21875 4.023438 -1.109375 4.546875 -1.109375 C 5.128906 -1.109375 5.640625 -1.234375 6.078125 -1.484375 Z M 6.078125 -3.796875 "/></g></g></g><g fill="#303642" fill-opacity="1"><g transform="translate(157.10363, 286.615469)"><g><path d="M 5.859375 0 L 4.34375 -2.171875 C 4.28125 -2.171875 4.1875 -2.171875 4.0625 -2.171875 L 2.375 -2.171875 L 2.375 0 L 1 0 L 1 -7.4375 L 4.0625 -7.4375 C 4.707031 -7.4375 5.265625 -7.328125 5.734375 -7.109375 C 6.210938 -6.898438 6.578125 -6.597656 6.828125 -6.203125 C 7.085938 -5.804688 7.21875 -5.335938 7.21875 -4.796875 C 7.21875 -4.234375 7.082031 -3.75 6.8125 -3.34375 C 6.539062 -2.9375 6.148438 -2.632812 5.640625 -2.4375 L 7.359375 0 Z M 5.828125 -4.796875 C 5.828125 -5.265625 5.671875 -5.625 5.359375 -5.875 C 5.046875 -6.132812 4.59375 -6.265625 4 -6.265625 L 2.375 -6.265625 L 2.375 -3.296875 L 4 -3.296875 C 4.59375 -3.296875 5.046875 -3.425781 5.359375 -3.6875 C 5.671875 -3.945312 5.828125 -4.316406 5.828125 -4.796875 Z M 5.828125 -4.796875 "/></g></g></g><g fill="#303642" fill-opacity="1"><g transform="translate(166.990564, 286.615469)"><g><path d="M 4.46875 0.109375 C 3.71875 0.109375 3.035156 -0.0507812 2.421875 -0.375 C 1.816406 -0.707031 1.335938 -1.164062 0.984375 -1.75 C 0.640625 -2.34375 0.46875 -3 0.46875 -3.71875 C 0.46875 -4.4375 0.640625 -5.085938 0.984375 -5.671875 C 1.335938 -6.265625 1.816406 -6.722656 2.421875 -7.046875 C 3.035156 -7.378906 3.71875 -7.546875 4.46875 -7.546875 C 5.226562 -7.546875 5.910156 -7.378906 6.515625 -7.046875 C 7.128906 -6.722656 7.609375 -6.269531 7.953125 -5.6875 C 8.304688 -5.101562 8.484375 -4.445312 8.484375 -3.71875 C 8.484375 -2.988281 8.304688 -2.332031 7.953125 -1.75 C 7.609375 -1.164062 7.128906 -0.707031 6.515625 -0.375 C 5.910156 -0.0507812 5.226562 0.109375 4.46875 0.109375 Z M 4.46875 -1.109375 C 4.96875 -1.109375 5.414062 -1.21875 5.8125 -1.4375 C 6.207031 -1.664062 6.519531 -1.976562 6.75 -2.375 C 6.976562 -2.769531 7.09375 -3.21875 7.09375 -3.71875 C 7.09375 -4.21875 6.976562 -4.664062 6.75 -5.0625 C 6.519531 -5.457031 6.207031 -5.765625 5.8125 -5.984375 C 5.414062 -6.210938 4.96875 -6.328125 4.46875 -6.328125 C 3.976562 -6.328125 3.535156 -6.210938 3.140625 -5.984375 C 2.742188 -5.765625 2.429688 -5.457031 2.203125 -5.0625 C 1.972656 -4.664062 1.859375 -4.21875 1.859375 -3.71875 C 1.859375 -3.21875 1.972656 -2.769531 2.203125 -2.375 C 2.429688 -1.976562 2.742188 -1.664062 3.140625 -1.4375 C 3.535156 -1.21875 3.976562 -1.109375 4.46875 -1.109375 Z M 4.46875 -1.109375 "/></g></g></g><g fill="#303642" fill-opacity="1"><g transform="translate(178.056021, 286.615469)"><g><path d="M 11.875 -7.4375 L 9.40625 0 L 7.9375 0 L 6.09375 -5.5 L 4.234375 0 L 2.75 0 L 0.28125 -7.4375 L 1.71875 -7.4375 L 3.5625 -1.78125 L 5.5 -7.4375 L 6.765625 -7.4375 L 8.65625 -1.75 L 10.546875 -7.4375 Z M 11.875 -7.4375 "/></g></g></g><g fill="#303642" fill-opacity="1"><g transform="translate(192.32789, 286.615469)"><g/></g></g><g fill="#303642" fill-opacity="1"><g transform="translate(197.383976, 286.615469)"><g><path d="M 2.5 -6.265625 L 0.046875 -6.265625 L 0.046875 -7.4375 L 6.359375 -7.4375 L 6.359375 -6.265625 L 3.890625 -6.265625 L 3.890625 0 L 2.5 0 Z M 2.5 -6.265625 "/></g></g></g><g fill="#303642" fill-opacity="1"><g transform="translate(205.901292, 286.615469)"><g><path d="M 4.46875 0.109375 C 3.71875 0.109375 3.035156 -0.0507812 2.421875 -0.375 C 1.816406 -0.707031 1.335938 -1.164062 0.984375 -1.75 C 0.640625 -2.34375 0.46875 -3 0.46875 -3.71875 C 0.46875 -4.4375 0.640625 -5.085938 0.984375 -5.671875 C 1.335938 -6.265625 1.816406 -6.722656 2.421875 -7.046875 C 3.035156 -7.378906 3.71875 -7.546875 4.46875 -7.546875 C 5.226562 -7.546875 5.910156 -7.378906 6.515625 -7.046875 C 7.128906 -6.722656 7.609375 -6.269531 7.953125 -5.6875 C 8.304688 -5.101562 8.484375 -4.445312 8.484375 -3.71875 C 8.484375 -2.988281 8.304688 -2.332031 7.953125 -1.75 C 7.609375 -1.164062 7.128906 -0.707031 6.515625 -0.375 C 5.910156 -0.0507812 5.226562 0.109375 4.46875 0.109375 Z M 4.46875 -1.109375 C 4.96875 -1.109375 5.414062 -1.21875 5.8125 -1.4375 C 6.207031 -1.664062 6.519531 -1.976562 6.75 -2.375 C 6.976562 -2.769531 7.09375 -3.21875 7.09375 -3.71875 C 7.09375 -4.21875 6.976562 -4.664062 6.75 -5.0625 C 6.519531 -5.457031 6.207031 -5.765625 5.8125 -5.984375 C 5.414062 -6.210938 4.96875 -6.328125 4.46875 -6.328125 C 3.976562 -6.328125 3.535156 -6.210938 3.140625 -5.984375 C 2.742188 -5.765625 2.429688 -5.457031 2.203125 -5.0625 C 1.972656 -4.664062 1.859375 -4.21875 1.859375 -3.71875 C 1.859375 -3.21875 1.972656 -2.769531 2.203125 -2.375 C 2.429688 -1.976562 2.742188 -1.664062 3.140625 -1.4375 C 3.535156 -1.21875 3.976562 -1.109375 4.46875 -1.109375 Z M 4.46875 -1.109375 "/></g></g></g><g fill="#303642" fill-opacity="1"><g transform="translate(216.966755, 286.615469)"><g><path d="M 6.078125 -3.796875 L 7.390625 -3.796875 L 7.390625 -0.84375 C 7.003906 -0.53125 6.554688 -0.289062 6.046875 -0.125 C 5.535156 0.03125 5.007812 0.109375 4.46875 0.109375 C 3.71875 0.109375 3.035156 -0.0507812 2.421875 -0.375 C 1.816406 -0.707031 1.335938 -1.164062 0.984375 -1.75 C 0.640625 -2.332031 0.46875 -2.988281 0.46875 -3.71875 C 0.46875 -4.445312 0.640625 -5.101562 0.984375 -5.6875 C 1.335938 -6.269531 1.816406 -6.722656 2.421875 -7.046875 C 3.035156 -7.378906 3.726562 -7.546875 4.5 -7.546875 C 5.113281 -7.546875 5.675781 -7.441406 6.1875 -7.234375 C 6.695312 -7.023438 7.128906 -6.722656 7.484375 -6.328125 L 6.609375 -5.484375 C 6.046875 -6.046875 5.363281 -6.328125 4.5625 -6.328125 C 4.03125 -6.328125 3.5625 -6.21875 3.15625 -6 C 2.75 -5.78125 2.429688 -5.472656 2.203125 -5.078125 C 1.972656 -4.679688 1.859375 -4.226562 1.859375 -3.71875 C 1.859375 -3.21875 1.972656 -2.769531 2.203125 -2.375 C 2.429688 -1.976562 2.75 -1.664062 3.15625 -1.4375 C 3.5625 -1.21875 4.023438 -1.109375 4.546875 -1.109375 C 5.128906 -1.109375 5.640625 -1.234375 6.078125 -1.484375 Z M 6.078125 -3.796875 "/></g></g></g><g fill="#303642" fill-opacity="1"><g transform="translate(227.289005, 286.615469)"><g><path d="M 6.578125 -1.15625 L 6.578125 0 L 1 0 L 1 -7.4375 L 6.421875 -7.4375 L 6.421875 -6.28125 L 2.375 -6.28125 L 2.375 -4.34375 L 5.96875 -4.34375 L 5.96875 -3.203125 L 2.375 -3.203125 L 2.375 -1.15625 Z M 6.578125 -1.15625 "/></g></g></g><g fill="#303642" fill-opacity="1"><g transform="translate(236.5283, 286.615469)"><g><path d="M 2.5 -6.265625 L 0.046875 -6.265625 L 0.046875 -7.4375 L 6.359375 -7.4375 L 6.359375 -6.265625 L 3.890625 -6.265625 L 3.890625 0 L 2.5 0 Z M 2.5 -6.265625 "/></g></g></g><g fill="#303642" fill-opacity="1"><g transform="translate(245.045622, 286.615469)"><g><path d="M 7.609375 -7.4375 L 7.609375 0 L 6.21875 0 L 6.21875 -3.1875 L 2.375 -3.1875 L 2.375 0 L 1 0 L 1 -7.4375 L 2.375 -7.4375 L 2.375 -4.359375 L 6.21875 -4.359375 L 6.21875 -7.4375 Z M 7.609375 -7.4375 "/></g></g></g><g fill="#303642" fill-opacity="1"><g transform="translate(255.771333, 286.615469)"><g><path d="M 6.578125 -1.15625 L 6.578125 0 L 1 0 L 1 -7.4375 L 6.421875 -7.4375 L 6.421875 -6.28125 L 2.375 -6.28125 L 2.375 -4.34375 L 5.96875 -4.34375 L 5.96875 -3.203125 L 2.375 -3.203125 L 2.375 -1.15625 Z M 6.578125 -1.15625 "/></g></g></g><g fill="#303642" fill-opacity="1"><g transform="translate(265.010629, 286.615469)"><g><path d="M 5.859375 0 L 4.34375 -2.171875 C 4.28125 -2.171875 4.1875 -2.171875 4.0625 -2.171875 L 2.375 -2.171875 L 2.375 0 L 1 0 L 1 -7.4375 L 4.0625 -7.4375 C 4.707031 -7.4375 5.265625 -7.328125 5.734375 -7.109375 C 6.210938 -6.898438 6.578125 -6.597656 6.828125 -6.203125 C 7.085938 -5.804688 7.21875 -5.335938 7.21875 -4.796875 C 7.21875 -4.234375 7.082031 -3.75 6.8125 -3.34375 C 6.539062 -2.9375 6.148438 -2.632812 5.640625 -2.4375 L 7.359375 0 Z M 5.828125 -4.796875 C 5.828125 -5.265625 5.671875 -5.625 5.359375 -5.875 C 5.046875 -6.132812 4.59375 -6.265625 4 -6.265625 L 2.375 -6.265625 L 2.375 -3.296875 L 4 -3.296875 C 4.59375 -3.296875 5.046875 -3.425781 5.359375 -3.6875 C 5.671875 -3.945312 5.828125 -4.316406 5.828125 -4.796875 Z M 5.828125 -4.796875 "/></g></g></g></svg>