<svg xmlns="http://www.w3.org/2000/svg" xmlns:xlink="http://www.w3.org/1999/xlink" width="500" zoomAndPan="magnify" viewBox="0 0 375 374.999991" height="500" preserveAspectRatio="xMidYMid meet" version="1.0"><defs><g/><clipPath id="51961e8f4d"><path d="M 78.765625 39.992188 L 296.265625 39.992188 L 296.265625 257.492188 L 78.765625 257.492188 Z M 78.765625 39.992188 " clip-rule="nonzero"/></clipPath></defs><g clip-path="url(#51961e8f4d)"><path fill="#60768b" d="M 130.195312 257.492188 L 78.765625 206.066406 L 136.085938 148.746094 L 78.765625 91.421875 L 130.195312 39.992188 L 187.515625 97.316406 L 244.835938 39.992188 L 296.265625 91.421875 L 238.945312 148.746094 L 296.265625 206.066406 L 244.835938 257.492188 L 206.671875 219.328125 C 190.503906 203.160156 190.503906 176.855469 206.671875 160.6875 L 218.617188 148.746094 L 187.515625 117.640625 L 156.414062 148.746094 L 168.355469 160.6875 C 176.1875 168.519531 180.503906 178.933594 180.503906 190.007812 C 180.503906 201.085938 176.1875 211.496094 168.355469 219.328125 Z M 228.78125 158.90625 L 216.835938 170.851562 C 206.273438 181.414062 206.273438 198.601562 216.835938 209.167969 L 244.835938 237.167969 L 275.9375 206.066406 Z M 99.09375 206.066406 L 130.195312 237.164062 L 158.195312 209.167969 C 163.308594 204.050781 166.128906 197.246094 166.128906 190.007812 C 166.128906 182.773438 163.308594 175.96875 158.195312 170.851562 L 146.25 158.910156 Z M 99.09375 91.421875 L 146.25 138.582031 L 177.351562 107.480469 L 130.195312 60.320312 Z M 197.679688 107.480469 L 228.78125 138.582031 L 275.9375 91.421875 L 244.835938 60.320312 Z M 197.679688 107.480469 " fill-opacity="1" fill-rule="nonzero"/></g><g fill="#60768b" fill-opacity="1"><g transform="translate(100.598279, 306.140219)"><g><path d="M 15.59375 0 L 11.171875 -6.609375 L 6.828125 0 L -0.0625 0 L 7.703125 -10.78125 L 0.28125 -21.3125 L 7.0625 -21.3125 L 11.328125 -15.171875 L 15.53125 -21.3125 L 22.046875 -21.3125 L 14.625 -11.03125 L 22.53125 0 Z M 15.59375 0 "/></g></g></g><g fill="#60768b" fill-opacity="1"><g transform="translate(129.126114, 306.140219)"><g><path d="M 1.46875 -10.90625 L 10.359375 -10.90625 L 10.359375 -6.453125 L 1.46875 -6.453125 Z M 1.46875 -10.90625 "/></g></g></g><g fill="#60768b" fill-opacity="1"><g transform="translate(147.028304, 306.140219)"><g><path d="M 22.40625 -21.3125 L 22.40625 0 L 16.390625 0 L 16.390625 -8.3125 L 8.15625 -8.3125 L 8.15625 0 L 2.125 0 L 2.125 -21.3125 L 8.15625 -21.3125 L 8.15625 -13.3125 L 16.390625 -13.3125 L 16.390625 -21.3125 Z M 22.40625 -21.3125 "/></g></g></g><g fill="#60768b" fill-opacity="1"><g transform="translate(177.65691, 306.140219)"><g><path d="M 2.125 -21.3125 L 8.15625 -21.3125 L 8.15625 0 L 2.125 0 Z M 2.125 -21.3125 "/></g></g></g><g fill="#60768b" fill-opacity="1"><g transform="translate(194.067243, 306.140219)"><g><path d="M 11.453125 -5.671875 L 8.15625 -5.671875 L 8.15625 0 L 2.125 0 L 2.125 -21.3125 L 11.875 -21.3125 C 13.800781 -21.3125 15.472656 -20.992188 16.890625 -20.359375 C 18.316406 -19.722656 19.414062 -18.804688 20.1875 -17.609375 C 20.957031 -16.421875 21.34375 -15.03125 21.34375 -13.4375 C 21.34375 -11.882812 20.984375 -10.535156 20.265625 -9.390625 C 19.546875 -8.242188 18.515625 -7.347656 17.171875 -6.703125 L 21.78125 0 L 15.3125 0 Z M 15.25 -13.4375 C 15.25 -14.425781 14.9375 -15.191406 14.3125 -15.734375 C 13.6875 -16.285156 12.753906 -16.5625 11.515625 -16.5625 L 8.15625 -16.5625 L 8.15625 -10.328125 L 11.515625 -10.328125 C 12.753906 -10.328125 13.6875 -10.59375 14.3125 -11.125 C 14.9375 -11.664062 15.25 -12.4375 15.25 -13.4375 Z M 15.25 -13.4375 "/></g></g></g><g fill="#60768b" fill-opacity="1"><g transform="translate(222.686412, 306.140219)"><g><path d="M 19.25 -4.65625 L 19.25 0 L 2.125 0 L 2.125 -21.3125 L 18.84375 -21.3125 L 18.84375 -16.65625 L 8.09375 -16.65625 L 8.09375 -13.0625 L 17.578125 -13.0625 L 17.578125 -8.5625 L 8.09375 -8.5625 L 8.09375 -4.65625 Z M 19.25 -4.65625 "/></g></g></g><g fill="#60768b" fill-opacity="1"><g transform="translate(249.235267, 306.140219)"><g><path d="M 2.125 -21.3125 L 12.21875 -21.3125 C 14.550781 -21.3125 16.617188 -20.875 18.421875 -20 C 20.234375 -19.132812 21.632812 -17.898438 22.625 -16.296875 C 23.625 -14.691406 24.125 -12.8125 24.125 -10.65625 C 24.125 -8.507812 23.625 -6.632812 22.625 -5.03125 C 21.632812 -3.425781 20.234375 -2.1875 18.421875 -1.3125 C 16.617188 -0.4375 14.550781 0 12.21875 0 L 2.125 0 Z M 11.96875 -4.8125 C 13.789062 -4.8125 15.253906 -5.328125 16.359375 -6.359375 C 17.472656 -7.398438 18.03125 -8.832031 18.03125 -10.65625 C 18.03125 -12.488281 17.472656 -13.921875 16.359375 -14.953125 C 15.253906 -15.984375 13.789062 -16.5 11.96875 -16.5 L 8.15625 -16.5 L 8.15625 -4.8125 Z M 11.96875 -4.8125 "/></g></g></g><g fill="#303642" fill-opacity="1"><g transform="translate(63.857677, 331.29094)"><g><path d="M 1.453125 -10.78125 L 3.453125 -10.78125 L 3.453125 -1.6875 L 9.09375 -1.6875 L 9.09375 0 L 1.453125 0 Z M 1.453125 -10.78125 "/></g></g></g><g fill="#303642" fill-opacity="1"><g transform="translate(76.159903, 331.29094)"><g><path d="M 9.53125 -1.671875 L 9.53125 0 L 1.453125 0 L 1.453125 -10.78125 L 9.328125 -10.78125 L 9.328125 -9.109375 L 3.453125 -9.109375 L 3.453125 -6.296875 L 8.65625 -6.296875 L 8.65625 -4.65625 L 3.453125 -4.65625 L 3.453125 -1.671875 Z M 9.53125 -1.671875 "/></g></g></g><g fill="#303642" fill-opacity="1"><g transform="translate(89.555037, 331.29094)"><g><path d="M 3.640625 -9.09375 L 0.0625 -9.09375 L 0.0625 -10.78125 L 9.21875 -10.78125 L 9.21875 -9.09375 L 5.640625 -9.09375 L 5.640625 0 L 3.640625 0 Z M 3.640625 -9.09375 "/></g></g></g><g fill="#303642" fill-opacity="1"><g transform="translate(101.903453, 331.29094)"><g><path d="M 0.859375 -10.78125 L 2.53125 -10.78125 L 2.390625 -6.515625 L 0.984375 -6.515625 Z M 0.859375 -10.78125 "/></g></g></g><g fill="#303642" fill-opacity="1"><g transform="translate(108.371772, 331.29094)"><g><path d="M 4.796875 0.15625 C 3.960938 0.15625 3.15625 0.0390625 2.375 -0.1875 C 1.601562 -0.425781 0.992188 -0.742188 0.546875 -1.140625 L 1.234375 -2.703125 C 1.671875 -2.347656 2.210938 -2.0625 2.859375 -1.84375 C 3.503906 -1.625 4.148438 -1.515625 4.796875 -1.515625 C 5.597656 -1.515625 6.191406 -1.640625 6.578125 -1.890625 C 6.972656 -2.148438 7.171875 -2.488281 7.171875 -2.90625 C 7.171875 -3.21875 7.0625 -3.472656 6.84375 -3.671875 C 6.625 -3.867188 6.34375 -4.023438 6 -4.140625 C 5.664062 -4.253906 5.207031 -4.382812 4.625 -4.53125 C 3.800781 -4.726562 3.132812 -4.921875 2.625 -5.109375 C 2.113281 -5.304688 1.675781 -5.613281 1.3125 -6.03125 C 0.945312 -6.445312 0.765625 -7.007812 0.765625 -7.71875 C 0.765625 -8.3125 0.925781 -8.851562 1.25 -9.34375 C 1.570312 -9.832031 2.0625 -10.21875 2.71875 -10.5 C 3.375 -10.789062 4.171875 -10.9375 5.109375 -10.9375 C 5.765625 -10.9375 6.410156 -10.851562 7.046875 -10.6875 C 7.691406 -10.53125 8.242188 -10.296875 8.703125 -9.984375 L 8.078125 -8.421875 C 7.597656 -8.703125 7.101562 -8.914062 6.59375 -9.0625 C 6.082031 -9.207031 5.582031 -9.28125 5.09375 -9.28125 C 4.300781 -9.28125 3.710938 -9.144531 3.328125 -8.875 C 2.941406 -8.601562 2.75 -8.25 2.75 -7.8125 C 2.75 -7.5 2.859375 -7.242188 3.078125 -7.046875 C 3.304688 -6.859375 3.585938 -6.707031 3.921875 -6.59375 C 4.265625 -6.476562 4.726562 -6.347656 5.3125 -6.203125 C 6.113281 -6.023438 6.769531 -5.832031 7.28125 -5.625 C 7.800781 -5.425781 8.242188 -5.117188 8.609375 -4.703125 C 8.972656 -4.296875 9.15625 -3.742188 9.15625 -3.046875 C 9.15625 -2.453125 8.992188 -1.910156 8.671875 -1.421875 C 8.347656 -0.941406 7.851562 -0.554688 7.1875 -0.265625 C 6.53125 0.015625 5.734375 0.15625 4.796875 0.15625 Z M 4.796875 0.15625 "/></g></g></g><g fill="#303642" fill-opacity="1"><g transform="translate(121.135794, 331.29094)"><g/></g></g><g fill="#303642" fill-opacity="1"><g transform="translate(128.466116, 331.29094)"><g><path d="M 8.8125 -5.515625 L 10.703125 -5.515625 L 10.703125 -1.21875 C 10.148438 -0.769531 9.503906 -0.425781 8.765625 -0.1875 C 8.023438 0.0390625 7.265625 0.15625 6.484375 0.15625 C 5.390625 0.15625 4.398438 -0.0820312 3.515625 -0.5625 C 2.628906 -1.039062 1.929688 -1.703125 1.421875 -2.546875 C 0.921875 -3.390625 0.671875 -4.335938 0.671875 -5.390625 C 0.671875 -6.453125 0.921875 -7.398438 1.421875 -8.234375 C 1.929688 -9.078125 2.628906 -9.738281 3.515625 -10.21875 C 4.410156 -10.695312 5.410156 -10.9375 6.515625 -10.9375 C 7.421875 -10.9375 8.242188 -10.785156 8.984375 -10.484375 C 9.722656 -10.191406 10.34375 -9.757812 10.84375 -9.1875 L 9.578125 -7.953125 C 8.753906 -8.773438 7.765625 -9.1875 6.609375 -9.1875 C 5.847656 -9.1875 5.171875 -9.023438 4.578125 -8.703125 C 3.992188 -8.390625 3.535156 -7.941406 3.203125 -7.359375 C 2.867188 -6.785156 2.703125 -6.128906 2.703125 -5.390625 C 2.703125 -4.671875 2.867188 -4.023438 3.203125 -3.453125 C 3.535156 -2.878906 3.992188 -2.425781 4.578125 -2.09375 C 5.171875 -1.769531 5.84375 -1.609375 6.59375 -1.609375 C 7.4375 -1.609375 8.175781 -1.789062 8.8125 -2.15625 Z M 8.8125 -5.515625 "/></g></g></g><g fill="#303642" fill-opacity="1"><g transform="translate(143.43132, 331.29094)"><g><path d="M 8.5 0 L 6.296875 -3.15625 C 6.203125 -3.144531 6.066406 -3.140625 5.890625 -3.140625 L 3.453125 -3.140625 L 3.453125 0 L 1.453125 0 L 1.453125 -10.78125 L 5.890625 -10.78125 C 6.816406 -10.78125 7.625 -10.625 8.3125 -10.3125 C 9.007812 -10.007812 9.539062 -9.570312 9.90625 -9 C 10.28125 -8.425781 10.46875 -7.742188 10.46875 -6.953125 C 10.46875 -6.140625 10.269531 -5.4375 9.875 -4.84375 C 9.488281 -4.257812 8.925781 -3.828125 8.1875 -3.546875 L 10.65625 0 Z M 8.453125 -6.953125 C 8.453125 -7.640625 8.226562 -8.164062 7.78125 -8.53125 C 7.332031 -8.90625 6.671875 -9.09375 5.796875 -9.09375 L 3.453125 -9.09375 L 3.453125 -4.796875 L 5.796875 -4.796875 C 6.671875 -4.796875 7.332031 -4.984375 7.78125 -5.359375 C 8.226562 -5.734375 8.453125 -6.265625 8.453125 -6.953125 Z M 8.453125 -6.953125 "/></g></g></g><g fill="#303642" fill-opacity="1"><g transform="translate(157.765407, 331.29094)"><g><path d="M 6.484375 0.15625 C 5.390625 0.15625 4.398438 -0.0820312 3.515625 -0.5625 C 2.628906 -1.039062 1.929688 -1.703125 1.421875 -2.546875 C 0.921875 -3.398438 0.671875 -4.347656 0.671875 -5.390625 C 0.671875 -6.441406 0.921875 -7.390625 1.421875 -8.234375 C 1.929688 -9.078125 2.628906 -9.738281 3.515625 -10.21875 C 4.398438 -10.695312 5.390625 -10.9375 6.484375 -10.9375 C 7.585938 -10.9375 8.578125 -10.695312 9.453125 -10.21875 C 10.335938 -9.738281 11.03125 -9.078125 11.53125 -8.234375 C 12.039062 -7.398438 12.296875 -6.453125 12.296875 -5.390625 C 12.296875 -4.335938 12.039062 -3.390625 11.53125 -2.546875 C 11.03125 -1.703125 10.335938 -1.039062 9.453125 -0.5625 C 8.578125 -0.0820312 7.585938 0.15625 6.484375 0.15625 Z M 6.484375 -1.609375 C 7.203125 -1.609375 7.847656 -1.769531 8.421875 -2.09375 C 9.003906 -2.414062 9.457031 -2.863281 9.78125 -3.4375 C 10.113281 -4.019531 10.28125 -4.671875 10.28125 -5.390625 C 10.28125 -6.109375 10.113281 -6.757812 9.78125 -7.34375 C 9.457031 -7.925781 9.003906 -8.378906 8.421875 -8.703125 C 7.847656 -9.023438 7.203125 -9.1875 6.484375 -9.1875 C 5.765625 -9.1875 5.117188 -9.023438 4.546875 -8.703125 C 3.972656 -8.378906 3.519531 -7.925781 3.1875 -7.34375 C 2.863281 -6.757812 2.703125 -6.109375 2.703125 -5.390625 C 2.703125 -4.671875 2.863281 -4.019531 3.1875 -3.4375 C 3.519531 -2.863281 3.972656 -2.414062 4.546875 -2.09375 C 5.117188 -1.769531 5.765625 -1.609375 6.484375 -1.609375 Z M 6.484375 -1.609375 "/></g></g></g><g fill="#303642" fill-opacity="1"><g transform="translate(173.808118, 331.29094)"><g><path d="M 17.203125 -10.78125 L 13.640625 0 L 11.515625 0 L 8.84375 -7.984375 L 6.125 0 L 3.984375 0 L 0.421875 -10.78125 L 2.5 -10.78125 L 5.171875 -2.59375 L 7.96875 -10.78125 L 9.8125 -10.78125 L 12.546875 -2.546875 L 15.296875 -10.78125 Z M 17.203125 -10.78125 "/></g></g></g><g fill="#303642" fill-opacity="1"><g transform="translate(194.499489, 331.29094)"><g/></g></g><g fill="#303642" fill-opacity="1"><g transform="translate(201.829806, 331.29094)"><g><path d="M 3.640625 -9.09375 L 0.0625 -9.09375 L 0.0625 -10.78125 L 9.21875 -10.78125 L 9.21875 -9.09375 L 5.640625 -9.09375 L 5.640625 0 L 3.640625 0 Z M 3.640625 -9.09375 "/></g></g></g><g fill="#303642" fill-opacity="1"><g transform="translate(214.17822, 331.29094)"><g><path d="M 6.484375 0.15625 C 5.390625 0.15625 4.398438 -0.0820312 3.515625 -0.5625 C 2.628906 -1.039062 1.929688 -1.703125 1.421875 -2.546875 C 0.921875 -3.398438 0.671875 -4.347656 0.671875 -5.390625 C 0.671875 -6.441406 0.921875 -7.390625 1.421875 -8.234375 C 1.929688 -9.078125 2.628906 -9.738281 3.515625 -10.21875 C 4.398438 -10.695312 5.390625 -10.9375 6.484375 -10.9375 C 7.585938 -10.9375 8.578125 -10.695312 9.453125 -10.21875 C 10.335938 -9.738281 11.03125 -9.078125 11.53125 -8.234375 C 12.039062 -7.398438 12.296875 -6.453125 12.296875 -5.390625 C 12.296875 -4.335938 12.039062 -3.390625 11.53125 -2.546875 C 11.03125 -1.703125 10.335938 -1.039062 9.453125 -0.5625 C 8.578125 -0.0820312 7.585938 0.15625 6.484375 0.15625 Z M 6.484375 -1.609375 C 7.203125 -1.609375 7.847656 -1.769531 8.421875 -2.09375 C 9.003906 -2.414062 9.457031 -2.863281 9.78125 -3.4375 C 10.113281 -4.019531 10.28125 -4.671875 10.28125 -5.390625 C 10.28125 -6.109375 10.113281 -6.757812 9.78125 -7.34375 C 9.457031 -7.925781 9.003906 -8.378906 8.421875 -8.703125 C 7.847656 -9.023438 7.203125 -9.1875 6.484375 -9.1875 C 5.765625 -9.1875 5.117188 -9.023438 4.546875 -8.703125 C 3.972656 -8.378906 3.519531 -7.925781 3.1875 -7.34375 C 2.863281 -6.757812 2.703125 -6.109375 2.703125 -5.390625 C 2.703125 -4.671875 2.863281 -4.019531 3.1875 -3.4375 C 3.519531 -2.863281 3.972656 -2.414062 4.546875 -2.09375 C 5.117188 -1.769531 5.765625 -1.609375 6.484375 -1.609375 Z M 6.484375 -1.609375 "/></g></g></g><g fill="#303642" fill-opacity="1"><g transform="translate(230.22094, 331.29094)"><g><path d="M 8.8125 -5.515625 L 10.703125 -5.515625 L 10.703125 -1.21875 C 10.148438 -0.769531 9.503906 -0.425781 8.765625 -0.1875 C 8.023438 0.0390625 7.265625 0.15625 6.484375 0.15625 C 5.390625 0.15625 4.398438 -0.0820312 3.515625 -0.5625 C 2.628906 -1.039062 1.929688 -1.703125 1.421875 -2.546875 C 0.921875 -3.390625 0.671875 -4.335938 0.671875 -5.390625 C 0.671875 -6.453125 0.921875 -7.398438 1.421875 -8.234375 C 1.929688 -9.078125 2.628906 -9.738281 3.515625 -10.21875 C 4.410156 -10.695312 5.410156 -10.9375 6.515625 -10.9375 C 7.421875 -10.9375 8.242188 -10.785156 8.984375 -10.484375 C 9.722656 -10.191406 10.34375 -9.757812 10.84375 -9.1875 L 9.578125 -7.953125 C 8.753906 -8.773438 7.765625 -9.1875 6.609375 -9.1875 C 5.847656 -9.1875 5.171875 -9.023438 4.578125 -8.703125 C 3.992188 -8.390625 3.535156 -7.941406 3.203125 -7.359375 C 2.867188 -6.785156 2.703125 -6.128906 2.703125 -5.390625 C 2.703125 -4.671875 2.867188 -4.023438 3.203125 -3.453125 C 3.535156 -2.878906 3.992188 -2.425781 4.578125 -2.09375 C 5.171875 -1.769531 5.84375 -1.609375 6.59375 -1.609375 C 7.4375 -1.609375 8.175781 -1.789062 8.8125 -2.15625 Z M 8.8125 -5.515625 "/></g></g></g><g fill="#303642" fill-opacity="1"><g transform="translate(245.186148, 331.29094)"><g><path d="M 9.53125 -1.671875 L 9.53125 0 L 1.453125 0 L 1.453125 -10.78125 L 9.328125 -10.78125 L 9.328125 -9.109375 L 3.453125 -9.109375 L 3.453125 -6.296875 L 8.65625 -6.296875 L 8.65625 -4.65625 L 3.453125 -4.65625 L 3.453125 -1.671875 Z M 9.53125 -1.671875 "/></g></g></g><g fill="#303642" fill-opacity="1"><g transform="translate(258.581288, 331.29094)"><g><path d="M 3.640625 -9.09375 L 0.0625 -9.09375 L 0.0625 -10.78125 L 9.21875 -10.78125 L 9.21875 -9.09375 L 5.640625 -9.09375 L 5.640625 0 L 3.640625 0 Z M 3.640625 -9.09375 "/></g></g></g><g fill="#303642" fill-opacity="1"><g transform="translate(270.92971, 331.29094)"><g><path d="M 11.03125 -10.78125 L 11.03125 0 L 9.03125 0 L 9.03125 -4.625 L 3.453125 -4.625 L 3.453125 0 L 1.453125 0 L 1.453125 -10.78125 L 3.453125 -10.78125 L 3.453125 -6.328125 L 9.03125 -6.328125 L 9.03125 -10.78125 Z M 11.03125 -10.78125 "/></g></g></g><g fill="#303642" fill-opacity="1"><g transform="translate(286.479857, 331.29094)"><g><path d="M 9.53125 -1.671875 L 9.53125 0 L 1.453125 0 L 1.453125 -10.78125 L 9.328125 -10.78125 L 9.328125 -9.109375 L 3.453125 -9.109375 L 3.453125 -6.296875 L 8.65625 -6.296875 L 8.65625 -4.65625 L 3.453125 -4.65625 L 3.453125 -1.671875 Z M 9.53125 -1.671875 "/></g></g></g><g fill="#303642" fill-opacity="1"><g transform="translate(299.874997, 331.29094)"><g><path d="M 8.5 0 L 6.296875 -3.15625 C 6.203125 -3.144531 6.066406 -3.140625 5.890625 -3.140625 L 3.453125 -3.140625 L 3.453125 0 L 1.453125 0 L 1.453125 -10.78125 L 5.890625 -10.78125 C 6.816406 -10.78125 7.625 -10.625 8.3125 -10.3125 C 9.007812 -10.007812 9.539062 -9.570312 9.90625 -9 C 10.28125 -8.425781 10.46875 -7.742188 10.46875 -6.953125 C 10.46875 -6.140625 10.269531 -5.4375 9.875 -4.84375 C 9.488281 -4.257812 8.925781 -3.828125 8.1875 -3.546875 L 10.65625 0 Z M 8.453125 -6.953125 C 8.453125 -7.640625 8.226562 -8.164062 7.78125 -8.53125 C 7.332031 -8.90625 6.671875 -9.09375 5.796875 -9.09375 L 3.453125 -9.09375 L 3.453125 -4.796875 L 5.796875 -4.796875 C 6.671875 -4.796875 7.332031 -4.984375 7.78125 -5.359375 C 8.226562 -5.734375 8.453125 -6.265625 8.453125 -6.953125 Z M 8.453125 -6.953125 "/></g></g></g></svg>