<svg xmlns="http://www.w3.org/2000/svg" xmlns:xlink="http://www.w3.org/1999/xlink" width="500" zoomAndPan="magnify" viewBox="0 0 375 374.999991" height="500" preserveAspectRatio="xMidYMid meet" version="1.0"><defs><clipPath id="b614dcb6d6"><path d="M 21.226562 21.226562 L 353.476562 21.226562 L 353.476562 353.476562 L 21.226562 353.476562 Z M 21.226562 21.226562 " clip-rule="nonzero"/></clipPath></defs><g clip-path="url(#b614dcb6d6)"><path fill="#60768b" d="M 99.789062 353.476562 L 21.226562 274.917969 L 108.789062 187.351562 L 21.226562 99.789062 L 99.789062 21.226562 L 187.351562 108.789062 L 274.914062 21.226562 L 353.476562 99.789062 L 265.914062 187.351562 L 353.476562 274.917969 L 274.914062 353.472656 L 216.617188 295.179688 C 191.921875 270.480469 191.921875 230.296875 216.617188 205.601562 L 234.863281 187.351562 L 187.351562 139.839844 L 139.839844 187.351562 L 158.085938 205.601562 C 170.050781 217.5625 176.640625 233.46875 176.640625 250.390625 C 176.640625 267.308594 170.050781 283.214844 158.085938 295.179688 Z M 250.386719 202.875 L 232.140625 221.125 C 216.003906 237.261719 216.003906 263.515625 232.140625 279.65625 L 274.914062 322.425781 L 322.421875 274.917969 Z M 52.28125 274.917969 L 99.789062 322.421875 L 142.5625 279.65625 C 150.375 271.835938 154.683594 261.441406 154.683594 250.390625 C 154.683594 239.332031 150.375 228.941406 142.5625 221.125 L 124.3125 202.878906 Z M 52.28125 99.789062 L 124.3125 171.828125 L 171.828125 124.316406 L 99.789062 52.28125 Z M 202.875 124.316406 L 250.386719 171.828125 L 322.421875 99.789062 L 274.914062 52.28125 Z M 202.875 124.316406 " fill-opacity="1" fill-rule="nonzero"/></g></svg>